<?xml version="1.0" encoding="UTF-8"?>
<svg width="19px" height="19px" viewBox="0 0 19 19" version="1.1" xmlns="http://www.w3.org/2000/svg" xmlns:xlink="http://www.w3.org/1999/xlink">
    <title>behance_portfolio_icon</title>
    <g id="Page-1-Images" stroke="none" stroke-width="1" fill="none" fill-rule="evenodd">
        <g id="behance_portfolio_icon">
            <circle id="Oval-Copy" fill="#FFFFFF" cx="9.5" cy="9.5" r="9.5"></circle>
            <path d="M13.2361111,8.54783951 C12.0115741,8.54783951 11.8414352,9.77006173 11.8414352,9.77006173 L14.4448418,9.77006173 C14.4448418,9.77006173 14.4614198,8.54783951 13.2361111,8.54783951 Z" id="Path" fill="#000000" fill-rule="nonzero"></path>
            <path d="M7.32947531,9.77005947 L5.02160494,9.77005947 L5.02160494,11.8888889 L7.06481481,11.8888889 C7.09953704,11.8888889 7.15162037,11.8896605 7.21257716,11.8888889 C7.54128086,11.8811728 8.16435185,11.7854938 8.16435185,10.8587963 C8.16435185,9.75887346 7.32947531,9.77005947 7.32947531,9.77005947 Z" id="Path" fill="#000000" fill-rule="nonzero"></path>
            <path d="M9.5003858,0 C4.25347222,0 0,4.25270062 0,9.4996142 C0,14.7465278 4.25347222,19 9.5003858,19 C14.7465278,19 19,14.7465278 19,9.4996142 C19,4.25308642 14.746142,0 9.5003858,0 Z M11.5,5.83719136 L14.7704475,5.83719136 L14.7704475,6.8132716 L11.5,6.8132716 L11.5,5.83719136 L11.5,5.83719136 Z M9.84683642,10.9575617 C9.84683642,13.376929 7.32947531,13.2970679 7.32947531,13.2970679 L5.02160494,13.2970679 L4.95408951,13.2970679 L3.20447531,13.2970679 L3.20447531,5.37037037 L4.95408951,5.37037037 L5.02160494,5.37037037 L7.32947531,5.37037037 C8.58256173,5.37037037 9.57175926,6.0625 9.57175926,7.48070988 C9.57175926,8.89891975 8.36226852,8.98919753 8.36226852,8.98919753 C9.95679012,8.98919753 9.84683642,10.9575617 9.84683642,10.9575617 Z M15.964892,10.8279321 L11.8572531,10.8279321 C11.8572531,12.3001543 13.251929,12.2075617 13.251929,12.2075617 C14.5690586,12.2075617 14.5231481,11.3545525 14.5231481,11.3545525 L15.9185957,11.3545525 C15.9185957,13.6180556 13.2052469,13.462963 13.2052469,13.462963 C9.95061728,13.462963 10.160108,10.4324846 10.160108,10.4324846 C10.160108,10.4324846 10.1570216,7.38734568 13.2052469,7.38734568 C16.413966,7.38734568 15.964892,10.8279321 15.964892,10.8279321 Z" id="Shape" fill="#000000" fill-rule="nonzero"></path>
            <path d="M7.8900463,7.60378086 C7.8900463,6.77932099 7.32947531,6.77932099 7.32947531,6.77932099 L7.03240741,6.77932099 L5.02160494,6.77932099 L5.02160494,8.54783951 L7.18634259,8.54783951 C7.55979938,8.54783951 7.8900463,8.42785494 7.8900463,7.60378086 Z" id="Path" fill="#000000" fill-rule="nonzero"></path>
        </g>
    </g>
</svg>