<?xml version="1.0" encoding="UTF-8"?>
<svg width="17px" height="17px" viewBox="0 0 17 17" version="1.1" xmlns="http://www.w3.org/2000/svg" xmlns:xlink="http://www.w3.org/1999/xlink">
    <title>dribble_icon</title>
    <g id="Page-1-Images" stroke="none" stroke-width="1" fill="none" fill-rule="evenodd">
        <g id="dribble_icon" fill="#000000" fill-rule="nonzero">
            <path d="M12.554814,14.5181421 C12.4811567,14.0809362 12.0939835,11.9496754 11.142104,9.33493845 C13.484974,8.96005562 15.5152725,9.6031166 15.6654201,9.65221964 C15.5074346,10.6329584 15.1499132,11.5708265 14.6148587,12.4077501 C14.0798042,13.2447681 13.378643,13.9629945 12.554814,14.5181421 Z M8.49897654,15.7580015 C6.81050481,15.760449 5.17444311,15.1717791 3.87461771,14.0941562 C3.97093885,14.171588 4.03798592,14.220691 4.03798592,14.220691 C4.03798592,14.220691 5.42897643,11.1866897 9.73411569,9.68715834 C9.74922488,9.68054832 9.76622273,9.67771545 9.78227625,9.67204971 C10.8040357,12.3255025 11.2252046,14.5474151 11.3328577,15.1819774 C10.4368822,15.562526 9.47338759,15.758466 8.49992087,15.7580015 L8.49897654,15.7580015 Z M1.24089569,8.49924247 C1.24089569,8.42181075 1.24467299,8.34626762 1.24656164,8.26978019 C1.37498982,8.27261305 4.96153563,8.35476622 8.69822909,7.23578347 C8.90594279,7.64182784 9.10425101,8.05731511 9.28745003,8.46996951 C9.19122332,8.49589025 9.09575208,8.52486104 9.0013196,8.55684412 C5.08429786,9.8221917 3.09743836,13.3453349 3.09743836,13.3453349 L3.10027133,13.349112 C1.90072379,12.0187973 1.23778886,10.2904647 1.23994609,8.49924247 L1.24089569,8.49924247 Z M5.40159101,1.93643223 C6.37969437,3.27736073 7.2798626,4.67343572 8.09763848,6.117745 C4.61307975,7.04314846 1.58746291,7.00726547 1.39670929,7.00348831 C1.62793667,5.90712129 2.1098162,4.87915857 2.80461266,4.00008194 C3.49940912,3.12101476 4.38827378,2.41469585 5.40159101,1.93643223 Z M13.2923318,3.05352641 C13.2743896,3.0809108 12.2412982,4.65409667 9.50086745,5.68053908 C8.69460288,4.20909093 7.78877815,2.794404 6.78974855,1.44634612 C7.92316502,1.16935775 9.10680068,1.17086861 10.2395183,1.4507465 C11.3721416,1.73062439 12.4203422,2.28054068 13.2942204,3.05352641 L13.2923318,3.05352641 Z M15.755131,8.4265322 C15.6512552,8.40386926 13.194122,7.87506728 10.70016,8.18857131 L10.5434021,7.81557706 C10.3919324,7.46008993 10.2310194,7.10869158 10.0608521,6.76175027 C12.926878,5.5908316 14.0902863,3.90999675 14.1044511,3.89016668 C15.1582232,5.16850768 15.7409661,6.76995614 15.755131,8.4265322 Z M16.8259954,6.78913465 C16.713243,6.24156021 16.5468529,5.70640316 16.3292805,5.19139725 C15.6876118,3.67324455 14.6178806,2.37462966 13.2507815,1.45390043 C12.7963723,1.14621322 12.3131613,0.883417526 11.8078531,0.669196068 C10.7605968,0.227533103 9.63552817,0 8.49897654,0 C7.36239659,0 6.23731851,0.227533103 5.19006224,0.669196068 C3.67268329,1.31227593 2.37436881,2.38159851 1.45242445,3.747579 C0.503321312,5.15026401 -0.00265455679,6.80565027 2.56999429e-05,8.49924247 C-0.00278298497,9.63569458 0.224651991,10.7609096 0.668634822,11.8070877 C0.88205224,12.3132267 1.14457455,12.7976471 1.45242445,13.2518502 C2.37426494,14.6176702 3.67263607,15.6867 5.19006224,16.3292889 C5.70444544,16.5472308 6.23941491,16.713048 6.78691558,16.8240964 C8.47166667,17.1729169 10.2227094,17.0003952 11.8069087,16.3292889 C12.3125003,16.1154074 12.796089,15.8529894 13.2507815,15.5455288 C13.7021687,15.2405234 14.1233376,14.8939692 14.5086222,14.5096435 C15.5046016,13.5156846 16.237681,12.2896195 16.6420409,10.9419299 C17.0464008,9.59424028 17.1092928,8.16717372 16.825051,6.78913465 L16.8259954,6.78913465 Z" id="Shape"></path>
        </g>
    </g>
</svg>