<?xml version="1.0" encoding="UTF-8"?>
<svg width="30px" height="24px" viewBox="0 0 30 24" version="1.1" xmlns="http://www.w3.org/2000/svg" xmlns:xlink="http://www.w3.org/1999/xlink">
    <title>Path</title>
    <g id="Page-1-Images" stroke="none" stroke-width="1" fill="none" fill-rule="evenodd">
        <g id="twitter-logo_icon" fill="#1DA1F2" fill-rule="nonzero">
            <path d="M9.43441406,24 C20.7551953,24 26.947207,14.7657118 26.947207,6.75771226 C26.947207,6.49545942 26.947207,6.23436035 26.9292188,5.97441506 C28.1337891,5.11652637 29.1736523,4.05441968 30,2.83764957 C28.8766992,3.32771509 27.6849609,3.64904117 26.4648047,3.79107075 C27.7494141,3.03396422 28.7114648,1.84223101 29.1707813,0.439241778 C27.9626367,1.14506305 26.6407031,1.64257042 25.2624023,1.91018831 C24.0986133,0.691745227 22.4732227,0 20.7745312,0 C17.3947266,0 14.6136914,2.73813656 14.6136914,6.0656209 C14.6136914,6.52724589 14.6672461,6.98742867 14.7731836,7.43705441 C9.82681641,7.19297352 5.21185547,4.88946364 2.08798828,1.10560398 C0.463535156,3.85885498 1.3040625,7.4269012 3.99357422,9.19505992 C3.01417969,9.16650402 2.05582031,8.90632797 1.2,8.43656887 L1.2,8.51335253 C1.20082031,11.3870575 3.27697266,13.8848053 6.13798828,14.4537889 C5.23189453,14.6970622 4.28097656,14.7325984 3.35882813,14.557744 C4.16314453,17.0201862 6.48251953,18.7175609 9.10921875,18.7661348 C6.93011719,20.4522025 4.23673828,21.3680683 1.46519531,21.365357 C0.97546875,21.364434 0.486210938,21.3352435 0,21.2779009 C2.81449219,23.0561551 6.09023437,23.9996539 9.43441406,23.9952695" id="Path"></path>
        </g>
    </g>
</svg>