<?xml version="1.0" encoding="UTF-8"?>
<svg width="15px" height="12px" viewBox="0 0 15 12" version="1.1" xmlns="http://www.w3.org/2000/svg" xmlns:xlink="http://www.w3.org/1999/xlink">
    <title>Path</title>
    <g id="Page-1-Images" stroke="none" stroke-width="1" fill="none" fill-rule="evenodd">
        <path d="M4.71720703,12 C10.3775977,12 13.4736035,7.38285588 13.4736035,3.37885613 C13.4736035,3.24772971 13.4736035,3.11718018 13.4646094,2.98720753 C14.0668945,2.55826319 14.5868262,2.02720984 15,1.41882478 C14.4383496,1.66385755 13.8424805,1.82452058 13.2324023,1.89553538 C13.874707,1.51698211 14.3557324,0.921115507 14.5853906,0.219620889 C13.9813184,0.572531524 13.3203516,0.821285208 12.6312012,0.955094153 C12.0493066,0.345872614 11.2366113,0 10.3872656,0 C8.69736328,0 7.3068457,1.36906828 7.3068457,3.03281045 C7.3068457,3.26362295 7.33362305,3.49371434 7.3865918,3.71852721 C4.9134082,3.59648676 2.60592773,2.44473182 1.04399414,0.552801988 C0.231767578,1.92942749 0.65203125,3.7134506 1.99678711,4.59752996 C1.50708984,4.58325201 1.02791016,4.45316398 0.6,4.21828443 L0.6,4.25667627 C0.600410156,5.69352877 1.63848633,6.94240264 3.06899414,7.22689447 C2.61594727,7.3485311 2.14048828,7.36629922 1.67941406,7.27887199 C2.08157227,8.51009312 3.24125977,9.35878046 4.55460938,9.3830674 C3.46505859,10.2261013 2.11836914,10.6840342 0.732597656,10.6826785 C0.487734375,10.682217 0.243105469,10.6676217 0,10.6389505 C1.40724609,11.5280776 3.04511719,11.9998269 4.71720703,11.9976348" id="Path" fill="#1DA1F2" fill-rule="nonzero"></path>
    </g>
</svg>